<?xml version="1.0" encoding="iso-8859-1"?>
<!-- Uploaded to: SVG Repo, www.svgrepo.com, Generator: SVG Repo Mixer Tools -->
<svg version="1.1" id="Layer_1" xmlns="http://www.w3.org/2000/svg" xmlns:xlink="http://www.w3.org/1999/xlink" 
	 viewBox="0 0 512 512" xml:space="preserve">
<path style="fill:#FAD24D;" d="M255.999,512C396.999,512,512,397.001,512,255.999C512,114.999,397.001,0,255.999,0
	C114.999,0,0,114.999,0,255.999S114.999,512,255.999,512z"/>
<path style="fill:#15BDB2;" d="M11.064,330.629c19.935-117.257,122.002-206.538,244.933-206.538
	c122.933,0,224.998,89.28,244.935,206.533C468.987,435.6,371.423,511.995,255.997,511.995
	C140.575,511.996,43.009,435.605,11.064,330.629z"/>
<path style="fill:#21D0C3;" d="M482.509,375.346c-1.619,3.069-3.296,6.104-5.033,9.097c-0.6-0.466-1.11-0.781-1.332-0.744
	c-0.693,0.131-0.729-0.753-0.102-1.96c0.624-1.226,3.972-1.816,3.896-3.28C479.862,377.148,481.452,375.363,482.509,375.346z
	 M467.385,400.409L467.385,400.409c-4.663,6.815-9.647,13.389-14.932,19.709c-1.741-0.464-3.267-0.975-3.664-1.61
	c-0.937-1.541,0.351-8.155,3.974-10.098c3.588-1.929,8.613-12.818,10.169-12.272c1.416,0.493,4.114,3.002,4.449,4.272H467.385z
	 M446.405,427.096L446.405,427.096c-0.935,1.037-1.88,2.067-2.833,3.091c-2.285-0.551-3.95-1.086-3.84-1.519
	c0.251-1.079,3.553-2.747,6.382-1.686L446.405,427.096z M142.357,485.437L142.357,485.437
	c-23.936-11.882-45.747-27.391-64.716-45.82c-1.182-2.933-1.287-8.178-0.511-8.271c0.977-0.136,1.505-2.069,0.264-2.618
	c-1.264-0.555-4.157-4.241-4.643-6.037c-0.471-1.781,1.717-10.827,2.771-12.076c1.066-1.239,1.945-7.476,2.431-7.997
	c0.493-0.542,0.33-3.925-0.297-5.309c-0.642-1.367-1.858-5.361-2.331-4.661c-0.464,0.695-2.951,1.153-4.449-0.506
	c-1.499-1.657-7.685-3.997-7.685-4.498c0-0.508-0.794-2.391-1.783-3.062c-1.008-0.651-3.399-3.828-4.423-4.304
	c-1.008-0.451-5.693-1.024-6.366-2.163c-0.702-1.142-5.151-5.085-8.671-5.833c-3.541-0.735-14.495-4.965-15.624-7.001
	c-1.137-2.029-2.362-11.537-3.557-12.999c-1.177-1.481-4.79-5.54-4.763-6.425c0.036-0.883-1.376-0.162-0.89,1.035
	c0.167,0.395,0.251,1.162,0.264,1.992c-2.48-6.366-4.705-12.863-6.679-19.464c7.709-43.398,26.68-82.952,53.82-115.483
	c1.233,0.16,2.287,0.52,2.342,0.997c0.122,1.075,2.203,0.7,2.995-1.786c0.473-1.461-0.018-3.379-0.435-4.862
	c1.073-1.231,2.158-2.46,3.273-3.664c1.9,0.753,4.701,1.865,5.486,3.12c1.099,1.728,4.279,5.995,3.444,6.908
	c-0.866,0.928,1.403,3.071,2.333,2.034c0.939-1.05,1.983-4.723,1.137-4.843c-0.843-0.118-2.882-4.041-2.946-8.127
	c-0.036-4.054,5.338-9.843,6.397-9.281c1.041,0.577,3.406,3.428,5.711,2.116c2.296-1.312,4.799,2.993,6.166,2.598
	c1.347-0.399,6.868,0.207,7.696,0.675c0.823,0.491,2.304,3.811,3.726,3.811c1.436,0,5.751,0.968,6.386,2.165
	c0.664,1.19,1.775,4.799,1.121,5.298c-0.658,0.491-0.353,3.322,0.995,3.963c1.327,0.646,5.449,2.418,5.513,3.377
	c0.062,0.928,2.181,1.692,1.783,2.467c-0.437,0.753-0.817,4.507-1.592,4.861c-0.788,0.348-1.976,2.313-2.991,1.345
	c-1.015-0.968-4.627-1.279-4.001-0.408c0.615,0.87,0.861,5.265,0.093,6.744c-0.755,1.519-1.574,6.046-4.154,4.199
	c-2.589-1.856-11.739-5.919-13.749-5.818c-2,0.087-0.353-4.012,5.38-6.389c0,0,0,0,0.881-6.833c0.464-4.032,0.464-4.032,0.464-4.032
	c-2.163-1.372-5.171-3.149-6.632-3.928c-1.49-0.788-5.238,0.921-6.461,0.33c-1.204-0.613-4.876-0.475-3.945-0.087
	c0.903,0.393,2.409,3.372,2.145,4.956c-0.264,1.574-1.98,7.07-3.939,7.74c-1.969,0.682-9.237,2.964-8.955,3.504
	c0.275,0.58-0.997,3.637-2.638,4.801c-1.63,1.148-5.749,6.494-6.877,7.872c-1.137,1.35-4.884,4.785-4.859,5.673
	c0.051,0.901-0.892,1.599,0.231,2.132c1.09,0.508,2.17,6.41,4.09,7.423c1.914,1.057,6.675,4.312,7.414,3.815
	c0.762-0.484,2.487,1.235,2.971,0.46c0.475-0.794,2.988,2.32,3.415,4.623c0.417,2.302,2.988,4.938,3.35,2.409
	c0.359-2.529,3.091-6.401,2.362-6.182c-0.715,0.22-1.321-2.23-0.304-2.163c1.044,0.087,3.872-2.846,4.458-6.195
	c0.589-3.337,0.284-15.718,0.921-16.085c0.586-0.351,3.659,0.535,4.23,1.494c0.56,0.957,4.032,0.308,4.907,1.69
	c0.881,1.399,6.202,1.692,6.202,3.415c0,1.728,0.968,6.291,2.152,6.4c1.19,0.111,4.054-0.013,4.157-0.932
	c0.098-0.912,1.49-1.314,2.476,0.684c0.997,2,5.134,6.324,5.08,7.13c-0.04,0.797,0.216,3.184,1.439,4.261
	c1.197,1.077,2.723,6.042,3.464,5.569c0.751-0.502,3.062,2.299,3.149,4.023c0.069,1.739,0.313,10.178,0.866,11.624
	c0.557,1.45,4.126,3.948,4.03,5.165c-0.129,1.195-0.975,3.826-2.436,3.186c-1.441-0.633-3.653,0.638-3.861,0.016
	c-0.22-0.629-1.31-2.241-2.335-1.802c-1.035,0.417-3.793-1.688-2.21-3.91c1.614-2.227,3.14-7.749,0.986-6.126
	c-2.19,1.632-7.951,0.417-7.6,1.099c0.351,0.662-0.794,3.731-2.105,4.045c-1.298,0.328-1.945,3.883-0.872,4.759
	c1.095,0.915,2.751,3.976,1.064,5.091c-1.443,0.944-4.83,2.7-5.314,2.975c0.606-0.337-1.521-2.504-3.977-1.757
	c-2.456,0.777-7.181,4.808-6.59,5.542c0.569,0.718-0.638,4.845-2.241,5.524c-1.605,0.675-6.663,3.675-7.745,5.087
	c-1.05,1.421-0.308,7.966-0.966,8.287c-0.635,0.346-3.026,0.97-2.78,1.759c0.207,0.799-2.645,5.296-5.323,6.683
	c-2.711,1.372-6.024,9.464-5.578,10.352c0.428,0.89,1.592,4.061,1.298,5.316c-0.284,1.242-0.93,6.384-2.731,5.546
	c-1.788-0.817-4.263-7.485-5.968-8.182c-1.737-0.7-7.516-1.179-7.767-0.771c-0.266,0.399-1.683,1.323-3.253,0.413
	c-1.568-0.888-8.644-0.48-9.948,0.313c-1.296,0.808-6.523,7.643-7.796,14.244c-1.307,6.617,9.705,10.131,10.225,8.642
	c0.513-1.485,3.535-4.612,4.772-4.438c1.215,0.147,6.07,1.528,5.591,3.737c-0.486,2.203,0.279,8.207,2.682,8.34
	c2.44,0.147,5.571,5.849,5.009,8.715c-0.589,2.871,1.876,9.088,2.94,8.347c1.073-0.762,4.971-1.976,5.995-1.539
	c1.026,0.457,2.875,2.831,4.454,1.605c1.532-1.253,4.931-6.417,5.908-6.728c0.986-0.333,3.095-1.517,3.717-0.678
	c0.646,0.855,3.341,1.383,3.533,0.379c0.187-0.995,4.259-0.062,5.626,1.03c1.334,1.128,3.954,5.076,4.372,4.685
	c0.388-0.428,3.577-0.149,5.662,1.012c2.127,1.153,8.92,5.005,9.603,6.824c0.693,1.845,6.899,6.828,10.438,8.981
	c3.544,2.127,4.627,8.668,5.426,9.184c0.812,0.513,5.205,1.361,6.923,1.889c1.728,0.555,5.58,3.706,6.686,3.706
	c1.121,0,5.513,0.557,7.29,1.197c1.755,0.671,5.218,3.802,5.986,3.06c0.758-0.746,3.757,2.64,4.743,5.345c0,0,0,0-0.029,3.499
	c0.016,2.19,0.016,2.19,0.016,2.19c-0.517,1.876-0.984,4.112-1.053,4.989c-0.073,0.886-3.166,4.796-4.019,5.738
	c-0.857,0.944-2.194,5.054-2.536,5.391c-0.322,0.339-2.116,1.239-2.221,2.307c-0.122,1.048-1.8,5.367-2.19,8.584
	c-0.388,3.222-1.907,12.203-2.904,12.618c-1.006,0.399-6.594,2.964-7.332,4.032c-0.749,1.07-3.029,4.632-3.029,5.818
	c0,0.584-0.288,1.84-0.753,3.106L142.357,485.437z M112.161,295.531L112.161,295.531l0.022-0.011
	C112.099,295.558,112.088,295.564,112.161,295.531z M136.632,156.245L136.632,156.245c-0.448-0.062-10.842,5.377-20.37,10.776
	c-10.874,7.383-21.081,15.629-30.635,24.6c2.973-0.222,7.582-0.767,9.523-1.097c2.984-0.493,7.934-1.318,8.287-2.158
	c0.238-0.686,0.273-2.736-0.284-3.446c0.475,0.031,1.024,0.047,1.443,0.047c1.128,0,3.011-6.195,4.199-7.645
	c1.197-1.454,8.009-3.586,9.632-4.563c1.63-0.995,5.18-4.405,6.534-4.805c1.376-0.411,3.357-3.588,3.057-4.239
	c-0.295-0.624,4.607-3.617,6.488-4.4c1.849-0.792,2.19-2.913,2.125-3.066v-0.004H136.632z M275.193,500.374L275.193,500.374
	c3.187-1.876,8.606-9.886,10.378-11.561c1.783-1.694,3.077-7.749,3.452-9.07c0.353-1.33,3.066-3.47,4.079-3.757
	c0.999-0.288,4.243-13.713,7.067-16.642c2.828-2.937,6.157-17.122,5.807-22.238c-0.362-5.087,1.823-14.817,2.487-17.154
	c0.68-2.333,4.23-6.488,5.343-7.345c1.09-0.87,7.93-10.991,10.149-14.614c2.183-3.635,4.288-11.61,3.87-13.478
	c-0.417-1.871-5.189-3.164-6.079-2.247c-0.886,0.926-5.368,1.683-6.804,1.683c-1.432,0-4.725-7.683-6.764-9.268
	c-2.032-1.572-3.872-10.374-5.049-12.039c-1.179-1.666-4.46-5.887-5.493-6.844c-1.026-0.961-1.206-5.638-1.441-6.918
	c-0.218-1.266,1.992,0.846,2.371,2.694c0.388,1.867,5.653,9.368,7.285,11.884c1.634,2.536,5.935,10.562,7.03,13.087
	c1.099,2.496,10.673,1.235,13.773-0.222c3.111-1.481,6.976-3.954,7.13-4.823c0.129-0.87,5.094-3.144,6.459-4.237
	c1.374-1.099,2.596-6.859,3.49-7.776c0.901-0.943-0.72-6.425-1.752-8.06c-1.026-1.634-5.997-2.942-6.987-2.303
	c-1.012,0.642-3.146-3.679-3.914-5.26c-0.759-1.601-4.558-3.548-4.982-4.627c-0.391-1.11,1.048-2.816,1.643-3.184
	c0.597-0.384,7.6,4.529,9.619,6.972c1.994,2.447,4.297,6.932,4.696,7.725c0.355,0.772,5.892,1.177,7.125,0.27
	c1.226-0.912,2.649-0.669,3.133,0.502c0,0,0,0,1.735-0.308c6.064-0.937,6.064-0.937,6.064-0.937c2.873,3.106,3.697,5.8,3.635,6.428
	c-0.058,0.591,1.755,3.12,2.931,3.388c1.177,0.27,2.036,4.243,2.398,5.223c0.342,0.984,3.806,6.918,4.509,9.424
	c0.713,2.489,3.662,7.365,4.369,8.677c0.684,1.307,1.284,5.089,1.284,6.119c0,1.035,2.212,3.069,3.595,2.971
	c1.367-0.085,4.154-8.78,4.81-12.015c0.626-3.231,2.866-5.891,3.493-5.891c0.644,0,1.146-1.82,1.146-2.513
	c0-0.673,3.513-0.606,3.833-1.488c0.297-0.883,1.339-6.621,2.591-7.494c1.262-0.875,5.704-3.791,7.279-4.337
	c1.543-0.533,5.529,2.904,6.43,4.507c0.883,1.599,1.69,5.689,1.343,6.353c-0.33,0.671,2.098,4.197,4.241,4.13
	c2.107-0.06,2.783,2.698,2.837,3.684c0.1,0.999,2.884,3.842,3.448,5.118c0.54,1.272,0.388,4.739,0.016,5.526
	c-0.386,0.781-0.131,5.332,0.275,6.612c0.406,1.262,6.943,7.89,9.384,9.899c2.456,2.003,3.604-4.088,2.342-5.988
	c-1.244-1.896-5.504-6.32-6.508-7.627c-1.006-1.327-1.175-6.626-0.797-8.091c0.362-1.492,3.728,0.812,5.125,1.88
	c1.394,1.075,3.222,3.459,3.273,4.259c0.049,0.788,8.804-4.112,9.099-9.439c0.322-5.316,3.224-11.313,3.508-12.705
	c0.29-1.407-0.866-3.335-1.599-3.386c-0.749-0.076,1.298-4.061,3.751-3.999c2.456,0.08,8.365-6.508,9.761-9.112
	c1.394-2.613,4.212-4.761,4.527-5.091c0.339-0.306,2.304-6.485,2.647-9.043c0.33-2.551-1.445-6.543-1.652-7.865
	c-0.209-1.314-2.324-4.356-2.886-5.312c-0.531-0.95-1.055-4.532-0.711-5.203c0.31-0.653,2.529-1.37,2.763-1.958
	c0.247-0.609,2.771-3.307,2.587-4.492c-0.189-1.199,1.574,1.539,2.736,2.518c1.157,0.988,2.409,7.334,3.859,8.031
	c1.414,0.7,7.232-6.724,6.508-11.514c-0.711-4.803,1.69-10.929,3.084-11.482c1.059-0.408,3.795-4.286,5.655-7.072
	c-12.783-36.896-33.977-69.865-61.318-96.625c-0.322,0.02-0.644,0.033-0.948-0.027c-2.127-0.462-2.127-0.462-2.127-0.462
	c-3.575-0.764-5.653-4.578-5.047-5.462c0.214-0.279,0.16-0.919-0.022-1.679c-1.976-1.794-4.019-3.561-6.097-5.285
	c-1.679-0.053-3.464,0-4.498-0.053c-2.145-0.076-6.784-1.599-7.607-2.429c-0.846-0.826-3.644,0.731-3.797,2.279
	c-0.187,1.548-5.065,2.265-5.511,3.441c-0.493,1.168-2.995,1.259-3.484,0.591c-0.48-0.655-5.009,1.592-7.256,1.932
	c-2.247,0.31-6.432,2.138-7.432,2.587c-1.01,0.442-3.39,2.774-3.782,3.731c-0.379,0.975-3.273,2.587-4.192,2.964
	c-0.939,0.364-0.751,4.563,0.455,5.16c1.186,0.582-2.23-0.508-3.728-1.29c-1.528-0.747-3.187,1.8-3.653,2.68
	c-0.484,0.875-1.858-0.528-1.802-1.77c0.047-1.274-3.726-2.281-4.223-1.277c-0.511,1.001-3.12-0.328-4.203-0.899
	c-1.093-0.582-5.767,4.312-7.502,6.075c-1.737,1.743-10.045,3.104-11.599,2.447c-1.559-0.651-3.086,3.673-1.761,3.976
	c1.307,0.255-3.377-0.225-5.946,0.016c-2.587,0.257-10.094,3.262-11.877,4.594c-1.816,1.339-3.244-0.293-3.244-1.321
	c0-1.026-2.857-1.974-3.713-2.265c-0.832-0.286-2.513,5.62-3.992,6.75c-1.49,1.157-3.287-4.607-6.784-5.551
	c-3.504-0.944-8.974-4.33-10.54-4.727c-1.539-0.413-4.67-3.688-5.549-4.634c-0.883-0.946-5.361-1.726-6.795-1.726
	c-1.441,0-6.082,2.665-7.312,3.704c-1.284,1.053-3.133,0.841-3.751,1.222c-0.615,0.371-5.871,5.513-7.894,7.119
	c-2.038,1.605-5.595,8.526-6.735,10.183c-1.184,1.646-2.837,1.954-3.519,2.003c-0.68,0.029-1.244,1.876-1.244,2.549
	c0,0.686-6.024,3.822-6.65,6.554c-0.633,2.731,0.591,8.974,0.591,11.2c0,2.221,2.239,6.621,3.905,6.699
	c1.663,0.08,0.797,3.773,0.351,4.81c-0.435,1.041,1.055,2.17,1.006,3.053c-0.038,0.883-4.221,2.116-5.511,2.622
	c-1.307,0.475-3.388,3.395-3.673,4.476c-0.227,0.957-4.241,1.632-5.569,2.902c0.324-0.919,0.777-2.19,1.137-2.902
	c0.771-1.454-0.293-4.001-0.917-4.523c-0.638-0.533-0.928-7.774-1.945-9.315c-1.017-1.568-3.548-4.197-4.174-4.71
	c-0.626-0.5,0.435-2.411,0.792-3.222c0.373-0.799-3.375-1.268-4.4-0.662c-1.021,0.582-1.574,7.756-2,9.714
	c-0.417,1.958,1.851,4.976,2.478,5.109c0.597,0.149,0.44,3.679-0.872,3.786c-1.316,0.136-2.513,5.285-1.84,6.461
	c0.678,1.175-0.939,3.49-1.714,4.019c-0.769,0.524,5.027,0.227,7.691,0.154c2.647-0.067,4.727,1.115,4.449,1.327
	c-0.282,0.225-5.074,0.941-5.939,2.076c-0.852,1.135-4.11,3.327-4.743,4.206c-0.626,0.863,1.073,2.809,2.456,2.716
	c1.374-0.08,2.944,4.77,4.021,5.66c1.073,0.912,0.675,3.415,0.22,4.114c-0.504,0.678-6.972-0.464-9.43,0.142
	c-2.476,0.606-5.589,5.818-5.798,7.778c-0.229,1.98,0.397,7.623,0.731,9.188c0.302,1.554,5.466,2.538,6.499,3.304
	c1.073,0.749,5.993,0.018,7.038,0.493c0.995,0.491,4.335-5.002,4.998-7.547c0.638-2.56,5.91-7.223,7.001-8.964
	c1.09-1.723,6.766-1.525,8.16-2.442c1.394-0.886,0.615,4.308,1.287,7.163c0.664,2.868,6.093,2.511,5.296-0.187
	c-0.797-2.667,0.542-3.841,0.758-2.862c0.24,0.955,5.442,3.089,6.434,4.596c0.977,1.514,0.704,4.721-0.453,4.685
	c-1.159-0.049-1.206,3.51,0.027,3.892c1.215,0.386,2.857-4.005,4.177-4.645c1.305-0.662,2.369-3.388,1.752-3.604
	c-0.589-0.211,1.121-2.656,1.869-1.851c0.742,0.803-2.789-5.32-5.009-7.562c-2.219-2.232-0.655-1.237,3.49,2.205
	c0,0,0,0,2.866,4.019c0.557,0.722,1.29,2.917,1.783,3.722c0.678,1.184,0.678,1.184,0.678,1.184c0.56,1.403,1.05,5.247,1.05,6.295
	c0,1.019,2.25,3.069,3.61,2.975c1.365-0.098,2.398,0.651,2.112,0.7c-0.284,0.049,0.901,2.707,2.259,2.774
	c1.347,0.06,1.936-3.435,0.569-3.521c-1.359-0.073-1.15-5.134-1.327-7.317c-0.154-2.205,0.988-4.01,1.459-4.01
	c0.464,0-0.062,4.523-0.018,5.566c0.018,1.03,0.589,3.086,1.235,4.556c0,0,0,0,1.403,1.066c3.142,2.416,3.142,2.416,3.142,2.416
	c4.507-1.33,10.56-0.313,10.323,0.615c-0.249,0.921,3.328,1.139,3.548-0.355c0.209-1.472,0.377,0.044,0.377,1.081
	c0,1.008-2.96,5.031-3.446,6.904c-0.502,1.845-10.902,0.586-15.376,0.245c-4.481-0.333-11.082,1.188-11.597,2.525
	c-0.491,1.341-7.485-3.073-10.68-4.412c-3.215-1.361-5.731-6.246-6.386-6.879c-0.662-0.642,0.549-2.221,0.245-3.178
	c-0.31-0.984-7.627-1.182-9.741-0.386c-2.136,0.777-13.102,1.938-15.702,3.08c-2.576,1.162-6.497-0.071-7.714-0.286
	c-1.213-0.214-4.114,3.366-5.58,4.014c-1.496,0.646-3.355,5.718-4.166,11.297c0,0,0,0-1.989,3.879
	c-1.29,2.478-1.29,2.478-1.29,2.478c-3.626,2.758-7.629,11.953-8.815,13.793c-1.168,1.845-2.107,15.079-2.107,19.533
	s3.881,13.878,4.982,16.473c1.101,2.607,7.818,8.356,10.058,9.741c2.247,1.345,9.543,1.528,11.931,1.523
	c2.382-0.009,5.114-2.283,6.035-5.049c0,0,0,0,3.513,0.351c1.601,0.169,1.601,0.169,1.601,0.169
	c0.089,1.956,5.258,3.521,6.528,4.215c1.262,0.691,4.679,0.176,5.682-0.129c1.024-0.284,2.156,8.846,1.416,11.498
	c-0.722,2.64,1.798,11.906,2.542,14.701c0.747,2.796,3.919,10.416,4.248,13.16c0.295,2.743-1.869,11.848-2.232,15.032
	c-0.351,3.207,3.974,12.119,5.136,15.189c1.119,3.062,2.047,9.67,2.047,11.191c0,1.532,4.748,10.765,5.818,14.555
	c1.099,3.808,12.987,4.739,16.175,2.868L275.193,500.374z M468.712,354.552L468.712,354.552c-0.89,1.255-1.936,1.327-2.276,0.165
	c-0.333-1.199-1.117-4.59-0.044-5.904C467.47,347.49,469.615,353.324,468.712,354.552z M475.427,367.059L475.427,367.059
	c-0.662,1.521-3.16,4.907-4.203,4.005c-1.061-0.926-1.423-8.171,0.997-7.676c2.407,0.511,3.85,2.172,3.204,3.668L475.427,367.059z
	 M486.405,323.119L486.405,323.119c1.565-1.075,6.927-4.547,8.198-5.707c0.626-0.555,1.985-1.503,3.178-2.391
	c0.669,2.738,1.336,5.473,1.896,8.244c-0.502,0.888-0.984,1.508-1.403,1.703c-2.353,1.084-4.583,1.761-4.978,1.485
	c-0.384-0.279-2.931,0.245-4.197,1.11c-1.268,0.859-3.717,4.467-4.696,3.826c-1.024-0.655-0.908-4.449,0.047-4.449
	c0.169,0,0.324,0.004,0.5,0.016c-0.375-0.866,0.254-2.995,1.456-3.839v0.004H486.405z M420.602,399.542L420.602,399.542
	c-0.531-0.391-0.464-0.355,0.04,0.013C420.628,399.542,420.602,399.542,420.602,399.542z M438.542,416.243L438.542,416.243
	c1.035,2.364-1.345,6.918-2.799,5.78c-1.459-1.135-7.912-17.343-11.26-19.746c-1.878-1.332-3.207-2.276-3.841-2.723
	c1.213,0.806,2.351-1.967,2.658-1.268c0.31,0.713,3.881,2.551,5.065,4.944c0,0,0,0,1.31,2.178c1.206,1.978,1.206,1.978,1.206,1.978
	C434.05,409.906,437.499,413.883,438.542,416.243z M387.145,390.053L387.145,390.053c0.906-1.825,2.473-2.525,3.468-1.548
	c1.017,1.004,2.201,5.489,1.739,6.38c-0.435,0.895-6.099-2.995-5.205-4.832H387.145z M311.924,476.665L311.924,476.665
	c-0.196-1.94-1.82-8.548-1.334-9.55c0.522-0.986,1.383-4.545,0.966-5.442c-0.444-0.91,0.81-6.13,1.925-7.669
	c1.139-1.545,6.217-5.252,6.768-7.061c0.513-1.818,2.538-4.549,2.609-2.745c0.087,1.79,2.866,12.008,2.427,14.228
	c-0.435,2.174-1.166,4.17-1.583,4.383c-0.437,0.245-0.955,2.19-0.955,3.029c0,0.863-0.364,4.463-0.812,6.151
	c-0.433,1.672-3.582,7.5-4.75,7.816c-1.119,0.313-5.029-1.208-5.258-3.138L311.924,476.665z M219.615,162.249L219.615,162.249
	c-1.434,0.174-5.142-0.577-5.787-1.257c-0.626-0.675-6.206-1.279-7.801-0.609c-1.61,0.671-0.508-3.912,1.73-4.405
	c2.227-0.508,0.33-3.668-2.045-3.668c-2.389-0.022-8.251-0.879-9.63-0.571c-1.383,0.297-4.079-0.964-5.056-1.106
	c-0.984-0.142-8.035,2.107-11.362,1.94c-3.348-0.142-11.539,0.189-13.3,0.691c-1.802,0.464-3.084,3.939-2.828,5.156
	c0.264,1.251-7.921,1.219-10.494,1.257c-2.58,0.04-16.306,2.957-19.884,4.931c-3.586,1.963-6.386,7.001-5.2,7.107
	c1.188,0.098-1.992,2.951-3.919,3.624c-1.923,0.653-6.514,0.95-7.609,2.034c-1.073,1.075,1.159,1.82,1.585,2.553
	c0.417,0.706,1.697-0.635,2.931,0.06c1.193,0.684,5.196,1.008,6.251,1.416c1.077,0.422-3.386,1.268-5.48,1.423
	c-2.096,0.14-1.626,4.259,0.082,4.823c1.71,0.582,6.113,1.186,6.554,0.475c0.457-0.715,5.227,0.771,7.392,1.028
	c2.134,0.227,3.797,5.626,4.44,6.799c0.669,1.162,0.806,5.269,0.64,6.459c-0.147,1.182,3.804,3.348,4.523,2.593
	c0.693-0.755,0.491,1.858-1.084,1.723c-1.574-0.14-0.551,4.423,1.416,5.085c1.932,0.651,0.606,3.457-0.513,4.321
	c-1.142,0.835-0.522,3.521-1.683,4.489c-1.137,0.955,4.099,10.029,4.061,14.708c-0.029,4.661,2.882,8.473,3.992,8.473
	c1.119,0,4.953,0.935,5.464,1.94c0.504,0.995,2.351-0.695,3.095-1.461c0.711-0.758,2.285-3.009,3.464-4.982
	c1.177-1.983,3.802-11.342,4.163-12.346c0.353-1.01,4.743-0.373,5.749-0.892c0.997-0.513,3.879-2.785,4.696-3.459
	c0.812-0.675,7.087-3.329,8.815-4.567c1.694-1.219,4.552-6.541,5.88-7.669c1.339-1.15-0.684-0.806-2.362-1.903
	c-1.652-1.09-0.921-2.427-0.433-2.935c0.473-0.522,5.529,0.839,7.276,1.512c1.743,0.693,5.065-1.71,3.804-2.649
	c-1.298-0.919-0.615-0.892,0-0.502c0.606,0.379,1.262-3.066,0.6-3.719c-0.675-0.666,5.114-4.884,4.09-8.875
	c-1.006-3.988,1.581-8.078,3.131-8.127c1.565-0.042,1.097-4.503-0.76-4.92c-1.849-0.413-0.102-0.823,0.589-1.461
	c0.691-0.626,1.574-4.612,1.175-5.374c-0.419-0.777,2.846-1.634,3.408-2.54c0.584-0.899,4.304-2.685,5.638-2.977
	c1.307-0.304,2.018-3.795,0.595-3.637v-0.009H219.615z M252.042,165.5L252.042,165.5c1.755,0.606,2.694,5.049,3.693,5.191
	c1.006,0.158,2.531,0.955,3.415,1.82c0.901,0.859,3.606,0.304,5.747,1.421c2.165,1.137,1.428,8.655-0.56,8.071
	c-1.998-0.604-6.346-2.081-6.859-0.218c-0.511,1.896-2.743,6.925-4.039,6.952c-1.31,0.04-3.044-2.962-4.319-3.14
	c-1.273-0.196-2.835-2.531-1.683-3.697c1.142-1.157,1.292-5.471,0.149-4.503c-1.168,0.952-5.74,1.425-5.78,0.772
	c-0.018-0.633-0.817-3.934-1.905-4.467c-1.081-0.549-0.439-4.694,1.934-5.933c2.371-1.219,5.771,1.332,5.292,0.202
	c-0.451-1.106,3.153-3.075,4.916-2.471V165.5H252.042z M269.435,169.102L269.435,169.102c3.508,0.491,7.456-2.389,8.309-3.215
	c0.875-0.806-9.725-2.971-13.757-3.102c-4.03-0.12-7.294,0.422-7.228,1.226c0.067,0.779,9.157,4.583,12.678,5.091H269.435z
	 M205.349,264.105L205.349,264.105c0.937,0.364,2.418-3.435,3.195-3.435c0.776,0,2.731,5.178,2.807,6.313
	c0.051,1.15-1.015,2.267-2.391,2.5c-1.385,0.234-4.618,0.346-4.836-0.972C203.911,267.192,204.424,263.722,205.349,264.105z
	 M215.752,223.701L215.752,223.701c0.733,1.273-0.548,7.13-1.726,7.248c-1.164,0.113-4.487,1.825-6.146,2.11
	c-1.672,0.257-3.412-0.629-3.883-2.007c-0.48-1.367-4.712-2.009-4.15-2.917c0.569-0.908,1.106-3.561,0.606-3.104
	c-0.52,0.451-2.409-0.359-1.144-0.908c1.246-0.557,1.865-4.823,2.622-3.95c0.788,0.879,4.916,2.247,6.242,2.324
	C209.52,222.581,215.031,222.419,215.752,223.701L215.752,223.701L215.752,223.701z M331.457,192.143L331.457,192.143
	c-1.883,1.92-8.869,5.816-8.004,7.953c0.826,2.163,2.276,8.347,1.659,8.548c-0.626,0.189-2.835,0.706-4.449-0.275
	c-1.612-1.008-5.238-4.621-4.585-5.609c0.673-1.001,2.562-9.866,3.722-11.026c1.148-1.17,4.319-3.218,7.087-4.534
	c2.734-1.319,11.668-3.415,11.866-3.751c0.174-0.313,1.15-1.294,1.936-1.294c0.788,0,2.214,1.605,1.339,3.555
	C341.138,187.679,333.358,190.244,331.457,192.143z M321.896,169.057L321.896,169.057c2.944,2.917,4.567-1.301,7.792-0.886
	C329.627,162.247,321.605,164.281,321.896,169.057z M379.076,170.163L379.076,170.163c-0.093,1.09,8.133,1.974,10.542,1.548
	c2.4-0.413-0.504-4.17-4.021-3.943C382.102,168.002,379.162,169.077,379.076,170.163z M81.226,231.155L81.226,231.155
	c-0.863,0.808-0.105,4.845,1.548,4.962c1.641,0.111,4.27-6.088,6.291-4.845c2.009,1.242,3.377,1.737,3.044,1.073
	c-0.339-0.651-6.082-3.162-6.792-3.639c-0.713-0.426-3.195,1.674-4.088,2.449L81.226,231.155L81.226,231.155z M102.269,367.754
	L102.269,367.754c0,0.678,3.586,0.584,4.175-0.522c0.569-1.097,0.262-1.996-0.704-1.996c-0.946,0-3.468,1.82-3.468,2.516
	L102.269,367.754z M86.302,361.852L86.302,361.852c1.723-0.33,0.919,2.451,1.316,3.444c0.428,1.001,4.534,1.796,5.363,2.476
	c0.812,0.671,2.937-1.264,4.59-1.053c1.641,0.207-0.542-5.693-3.309-5.526c-2.756,0.182-4.936-2.498-5.586-2.831
	c-0.68-0.295-3.845-2.241-4.779-2.971c-0.901-0.742-7.934-1.363-10.321-1.363c-2.389,0-5.018,2.438-5.38,3.231
	c-0.386,0.808,3.788,1.347,4.965,0.713c1.195-0.622,6.764,0.706,7.901,2.047C82.21,361.348,84.575,362.179,86.302,361.852z
	 M78.795,367.754L78.795,367.754c0,0.678,3.622,0.251,4.489,0.275c0.89,0.016,0.85-0.575-0.069-1.31
	C82.306,365.988,78.795,367.057,78.795,367.754z M81.355,349.107L81.355,349.107c-0.937-0.364-1.694,1.115-1.694,1.818
	c0,0.691,0.52,1.268,1.146,1.268C81.453,352.193,82.299,349.495,81.355,349.107z M88.947,349.698L88.947,349.698
	c-0.322-0.702-1.867-1.266-2.324-1.266c-0.473,0-0.814,1.206-0.729,2.656C85.976,352.548,89.26,350.382,88.947,349.698z
	 M94.412,358.116L94.412,358.116c1.463-0.713,1.643-2.467,0.774-2.362c-0.87,0.087-2.476-2.527-3.421-2.9
	c-0.941-0.377-1.708,1.57-1.708,2.42c0,0.85,0.528,1.436,1.177,1.259C91.876,356.377,92.932,358.792,94.412,358.116z"/>
<g>
	<ellipse style="fill:#15BDB2;" cx="403.332" cy="255.062" rx="61.59" ry="8.024"/>
	<ellipse style="fill:#15BDB2;" cx="150.207" cy="377.014" rx="81.641" ry="14.794"/>
</g>
<g>
	<path style="fill:#FFFFFF;" d="M407.885,218.376c3.617,0,6.566-0.946,6.566-2.109s-2.948-2.112-6.566-2.112
		c-3.617,0-6.568,0.948-6.568,2.112S404.268,218.376,407.885,218.376z"/>
	<path style="fill:#FFFFFF;" d="M397.972,141.939c1.505,2.866,6.974,1.347,5.609-1.739c-3.813-7.489-6.222-10.62-11.297-17.626
		c-0.729-0.988-2.154-1.474-3.495-1.166c-1.863,0.402-2.72,2.19-1.732,3.528c5.082,7.009,6.956,9.547,10.916,17v0.002H397.972z
		 M135.609,183.205L135.609,183.205c-0.937,2.003,1.37,3.943,3.912,3.255c0.729-0.211,1.421-0.715,1.708-1.327
		c3.67-7.348,7.977-14.657,12.596-21.636c1.601-2.349-2.303-5.025-4.985-2.814c-4.108,4.086-10.54,17.133-13.233,22.522H135.609z
		 M157.577,148.447L157.577,148.447c-1.963,2.549,2.6,5.225,4.971,2.866c5.885-6.73,10.718-13.144,17.208-19.708
		c2.427-2.618-2.335-5.513-4.768-3.098c-6.233,6.333-12.11,13.067-17.41,19.939h-0.002V148.447z M186.764,117.382L186.764,117.382
		c-2.382,2.15,1.093,5.34,4.099,3.637c5.236-4.73,13.909-11.402,21.747-16.71c2.971-2.032-0.767-5.778-3.928-3.782
		c-7.767,5.225-15.059,10.86-21.917,16.853V117.382z M223.235,91.667L223.235,91.667c-1.128,0.64-1.597,1.781-1.099,2.831
		c0.66,1.492,3.006,2.116,4.574,1.231c8.144-4.46,16.616-8.322,25.65-11.535c3.3-1.073,1.666-5.413-2.201-4.576
		c-9.304,2.765-18.746,7.576-26.924,12.052V91.667z M267.236,74.705L267.236,74.705c-3.392,0.686-2.64,4.978,1.186,4.785
		c3.481-0.413,12.956-3.45,29.473-3.229c3.961,0,4.054-4.672,0.018-4.876c-10.876,0-20.243,1.024-30.679,3.318L267.236,74.705z
		 M315.361,77.841L315.361,77.841c9.536,1.69,18.514,4.592,26.973,8.606c4.048,1.96,6.672-2.315,3.386-3.992
		c-8.613-4.215-18.447-7.368-28.204-9.201C311.737,72.23,311.907,77.156,315.361,77.841z M360.971,91.398L360.971,91.398
		c-2.913-2.105-7.018,1.403-3.921,3.644c7.46,5.171,14.286,11.393,20.122,17.763c2.205,2.48,7.038,0.109,4.998-2.654
		c-5.586-6.663-13.624-13.505-21.201-18.755L360.971,91.398z"/>
	<path style="fill:#FFFFFF;" d="M66.381,204.268h155.963h23.217c2.814,0,5.114,2.303,5.114,5.116v30.44v111.173H38.047v-0.002
		V239.824v-30.44c0-2.814,2.301-5.116,5.114-5.116h23.219L66.381,204.268L66.381,204.268z"/>
</g>
<path style="fill:#666666;" d="M43.163,204.268H245.56c2.814,0,5.114,2.303,5.114,5.116v10.227H38.047v-10.227
	c0-2.814,2.301-5.116,5.114-5.116H43.163z"/>
<path style="fill:#FFFFFF;" d="M132.709,209.568H235.42c0.758,0,1.374,0.617,1.374,1.374v2.549c0,0.758-0.617,1.372-1.374,1.372
	H132.709c-0.758,0-1.372-0.617-1.372-1.372v-2.549C131.336,210.185,131.954,209.568,132.709,209.568z"/>
<path style="fill:#21D0C3;" d="M48.252,208.655c1.626,0,2.944,1.316,2.944,2.944c0,1.628-1.318,2.944-2.944,2.944
	c-1.628,0-2.948-1.319-2.948-2.944C45.303,209.972,46.624,208.655,48.252,208.655z"/>
<path style="fill:#FCB42A;" d="M59.875,208.655c1.628,0,2.946,1.316,2.946,2.944c0,1.628-1.318,2.944-2.946,2.944
	c-1.626,0-2.944-1.319-2.944-2.944C56.931,209.972,58.25,208.655,59.875,208.655z"/>
<path style="fill:#FF5B62;" d="M71.503,208.655c1.626,0,2.944,1.316,2.944,2.944c0,1.628-1.318,2.944-2.944,2.944
	c-1.63,0-2.948-1.319-2.948-2.944C68.555,209.972,69.874,208.655,71.503,208.655z"/>
<path style="fill:#ECF0F1;" d="M49.555,225.24h189.614v62.549H49.555V225.24z"/>
<path style="fill:#FF5B62;" d="M77.687,296.923c6.961,0,12.605,5.642,12.605,12.605c0,6.961-5.642,12.605-12.605,12.605
	c-6.961,0-12.603-5.644-12.603-12.605C65.084,302.567,70.727,296.923,77.687,296.923z"/>
<path style="fill:#21D0C3;" d="M144.362,296.923c6.961,0,12.603,5.642,12.603,12.605c0,6.961-5.642,12.605-12.603,12.605
	s-12.603-5.644-12.603-12.605C131.759,302.567,137.401,296.923,144.362,296.923z"/>
<path style="fill:#FAD24D;" d="M211.036,296.923c6.961,0,12.605,5.642,12.605,12.605c0,6.961-5.642,12.605-12.605,12.605
	c-6.961,0-12.605-5.644-12.605-12.605C198.43,302.567,204.074,296.923,211.036,296.923z"/>
<g>
	<path style="fill:#DCE3DB;" d="M59.603,326.333h36.17v2.556h-36.17V326.333z M59.603,342.408h24.296v2.556H59.603V342.408z
		 M59.603,334.37h36.17v2.556h-36.17V334.37z"/>
	<path style="fill:#DCE3DB;" d="M126.276,326.333h36.17v2.556h-36.17C126.276,328.889,126.276,326.333,126.276,326.333z
		 M126.276,342.408h24.296v2.556h-24.296C126.276,344.964,126.276,342.408,126.276,342.408z M126.276,334.37h36.17v2.556h-36.17
		C126.276,336.926,126.276,334.37,126.276,334.37z"/>
	<path style="fill:#DCE3DB;" d="M192.953,326.333h36.168v2.556h-36.168V326.333z M192.953,342.408h24.296v2.556h-24.296V342.408z
		 M192.953,334.37h36.168v2.556h-36.168V334.37z"/>
</g>
<path style="fill:#ECF0F1;" d="M48.611,291.781h190.557v0.786H48.611V291.781z"/>
<rect x="124.058" y="350.994" style="fill:#919191;" width="40.6" height="19.743"/>
<g>
	<path style="fill:#FFFFFF;" d="M105.174,370.74h78.371c2.187,0,3.977,1.787,3.977,3.977v3.979h-86.324v-3.979
		C101.197,372.527,102.985,370.74,105.174,370.74z"/>
	<path style="fill:#FFFFFF;" d="M356.954,149.018h92.744h13.806c1.674,0,3.042,1.37,3.042,3.042v18.101v66.11H340.108l-0.002-0.002
		v-66.108V152.06c0-1.674,1.367-3.042,3.042-3.042H356.954z"/>
</g>
<path style="fill:#666666;" d="M343.15,149.018h120.355c1.674,0,3.042,1.367,3.042,3.042v6.082H340.106v-6.082
	c0-1.674,1.367-3.042,3.042-3.042H343.15z"/>
<path style="fill:#FFFFFF;" d="M396.397,152.169h61.077c0.451,0,0.817,0.368,0.817,0.817v1.516c0,0.451-0.366,0.817-0.817,0.817
	h-61.077c-0.448,0-0.817-0.366-0.817-0.817v-1.516C395.58,152.537,395.949,152.169,396.397,152.169z"/>
<path style="fill:#21D0C3;" d="M346.176,151.627c0.966,0,1.75,0.781,1.75,1.752c0,0.966-0.783,1.75-1.75,1.75
	c-0.968,0-1.752-0.783-1.752-1.75C344.424,152.41,345.208,151.627,346.176,151.627z"/>
<path style="fill:#FAD24D;" d="M353.088,151.627c0.968,0,1.752,0.781,1.752,1.752c0,0.966-0.783,1.75-1.752,1.75
	c-0.966,0-1.75-0.783-1.75-1.75C351.339,152.41,352.122,151.627,353.088,151.627z"/>
<path style="fill:#FF5B62;" d="M360.003,151.627c0.966,0,1.75,0.781,1.75,1.752c0,0.966-0.783,1.75-1.75,1.75
	c-0.968,0-1.752-0.783-1.752-1.75C358.25,152.41,359.035,151.627,360.003,151.627z"/>
<path style="fill:#ECF0F1;" d="M346.951,161.49h112.752v37.194H346.951V161.49z"/>
<path style="fill:#FF5B62;" d="M363.68,204.114c4.139,0,7.496,3.355,7.496,7.496c0,4.139-3.355,7.493-7.496,7.493
	c-4.139,0-7.493-3.355-7.493-7.493C356.185,207.472,359.541,204.114,363.68,204.114z"/>
<path style="fill:#21D0C3;" d="M403.327,204.114c4.139,0,7.493,3.355,7.493,7.496c0,4.139-3.355,7.493-7.493,7.493
	s-7.493-3.355-7.493-7.493C395.833,207.472,399.188,204.114,403.327,204.114z"/>
<path style="fill:#FAD24D;" d="M442.975,204.114c4.139,0,7.496,3.355,7.496,7.496c0,4.139-3.355,7.493-7.496,7.493
	c-4.139,0-7.493-3.355-7.493-7.493C435.48,207.472,438.836,204.114,442.975,204.114z"/>
<g>
	<path style="fill:#DCE3DB;" d="M352.924,221.602h21.509v1.521h-21.509V221.602z M352.924,231.162h14.446v1.521h-14.446V231.162z
		 M352.924,226.383h21.509v1.519h-21.509V226.383z"/>
	<path style="fill:#DCE3DB;" d="M392.573,221.602h21.507v1.521h-21.507V221.602z M392.573,231.162h14.446v1.521h-14.446V231.162z
		 M392.573,226.383h21.507v1.519h-21.507V226.383z"/>
	<path style="fill:#DCE3DB;" d="M432.221,221.602h21.507v1.521h-21.507V221.602z M432.221,231.162h14.446v1.521h-14.446V231.162z
		 M432.221,226.383h21.507v1.519h-21.507V226.383z"/>
</g>
<path style="fill:#ECF0F1;" d="M346.389,201.057h113.314v0.466H346.389V201.057z"/>
<rect x="391.256" y="236.269" style="fill:#919191;" width="24.143" height="11.739"/>
<path style="fill:#FFFFFF;" d="M380.024,248.01h46.604c1.301,0,2.364,1.064,2.364,2.364v2.364h-51.334v-2.364
	C377.659,249.074,378.722,248.01,380.024,248.01z"/>
<path style="fill:#FEFEFE;" d="M301.994,33.448l10.849,12.91l-13.74,9.05l-2.585-3.934l6.77-4.46
	c-57.208-10.118-119.884,20.481-155.315,64.846l11.162-1.452l0.6,4.672l-19.208,2.498l-1.714-17.033l4.681-0.468l0.881,8.748
	c36.379-45.487,100.177-76.502,158.861-66.601l-4.841-5.76l3.604-3.02L301.994,33.448z"/>
</svg>