<?xml version="1.0" encoding="iso-8859-1"?>
<!-- Uploaded to: SVG Repo, www.svgrepo.com, Generator: SVG Repo Mixer Tools -->
<svg version="1.1" id="Layer_1" xmlns="http://www.w3.org/2000/svg" xmlns:xlink="http://www.w3.org/1999/xlink" 
	 viewBox="0 0 509.287 509.287" xml:space="preserve">
<circle style="fill:#F1F3F7;" cx="254.644" cy="254.644" r="254.644"/>
<circle style="fill:#6EB1E1;" cx="254.644" cy="254.644" r="254.644"/>
<g>
	<path style="fill:#4485C5;" d="M443.168,83.751c-1.695,0.339-3.052,0.678-4.747,0.678c-0.678,0-1.695-1.695-2.374-2.713
		c-2.374,0.678-4.408,1.356-6.442,2.034c-3.052,1.356-6.781,2.713-9.155,5.086c-4.069,3.391-4.408,3.73-7.799-1.017
		c1.356-0.678,2.713-1.017,5.425-2.374c-3.391-1.356-5.764-2.034-8.138-3.052c0,4.747,0,8.138,0,11.868
		c-7.46-1.695-12.207,1.695-11.529,8.138c-3.052-0.678-6.103-1.356-9.155-2.034c0,0.339-0.339,0.678-0.339,1.356
		c1.356,1.017,2.374,2.374,4.069,3.73c-5.764,0-8.816-2.034-9.494-5.425c-0.678-2.713-1.695-5.086-2.374-7.46
		c0.339,0,1.695,0.339,2.713,0.678c3.73,0.678,7.799,2.034,11.528,2.034c2.374,0,4.408-2.713,6.781-4.408
		c-1.356-1.695-2.713-4.069-4.408-5.086c-8.816-3.73-17.632-7.121-26.448-10.511c-0.339,0,0.678-0.339,2.034-0.678
		c-2.713-1.695-4.408-2.713-6.103-3.052c-2.374-0.339-5.086,0.339-7.46,0.339c-1.695,0-3.391-0.339-4.747,0
		c-4.408,1.356-8.477,3.73-12.885,4.069s-7.121,1.356-8.138,5.764c-2.034,0-3.73-0.339-5.764-0.339c0,0.339,0,0.678-0.339,1.017
		c1.017,0.678,2.374,1.356,3.052,1.695c-3.391,4.069-6.103,8.138-9.494,11.868c-3.391,3.73-6.781,8.138-11.189,10.85
		c-10.172,6.442-10.85,6.781-9.155,17.971c0,1.017,1.017,1.695,1.356,2.713c1.356,5.086,4.069,6.103,8.138,3.052
		c2.034-1.356,3.73-2.713,5.764-4.069c2.034,4.747,3.73,8.816,5.764,13.224c-1.356,1.017-2.713,2.374-4.408,3.391
		c0.339,1.356,1.017,2.374,1.695,4.408c1.017-2.034,1.695-3.73,2.034-5.086c2.374,1.356,9.494-1.356,10.85-4.069
		c2.034-5.086,4.069-9.833,6.103-15.258c-4.069-1.695-5.425-5.764-2.713-10.511c1.356-2.034,4.069-3.391,5.764-5.425
		c1.695-2.034,3.73-4.069,4.408-6.103c2.034-5.086,6.781-6.103,11.528-1.695c-1.356,1.695-3.052,3.391-4.408,4.747
		c-4.069,3.73-8.477,6.781-6.781,13.902c1.017,4.408,3.052,6.103,7.121,5.764c2.713-0.339,5.425-1.695,8.138-2.034
		c2.034-0.339,4.408,0.339,6.781,0.678c0,0.678,0,1.356,0,2.034c-5.425,1.017-10.85,1.695-15.936,2.374
		c1.017,3.73,1.695,6.781,2.034,9.494c-0.678,0.339-1.017,0.339-1.695,0.678c-1.356-1.017-2.713-2.034-5.764-4.408
		c-1.017,5.086-1.695,8.816-2.374,12.885c-2.034,0.678-4.408,5.086-8.138,1.017c-0.339-0.339-1.356,0-1.695,0.339
		c-4.747,4.747-10.85,1.356-16.276,2.374c-1.356,0.339-3.391-2.374-5.086-3.391c0,0,0-0.678,0.339-1.017
		c0.678,0.339,1.356,0.339,2.034,0.339c-0.339-3.73-0.339-7.121-0.678-10.511c-11.189,2.713-3.052,10.511-4.069,14.241
		c-4.747,2.713-8.816,4.408-11.868,7.121c-4.069,3.391-7.799,7.46-11.868,11.189c-1.017,1.017-2.713,1.017-4.408,1.356
		c-0.678,0.339-1.017,0.678-1.695,1.017c-1.017,0.678-2.034,1.695-3.391,2.034c-1.695,0.339-3.391,0.339-6.103,0.339
		c1.695,1.695,2.034,2.374,2.713,3.052c2.374,2.034,5.764,3.391,6.781,6.103c1.356,3.052,0.678,6.781,0.339,10.172
		c0,0.678-4.069,1.017-6.103,1.356c-5.086,0.339-9.833,0-14.58,0c0,9.155,0,16.954,0,23.057c4.069,2.034,6.781,3.391,9.833,4.747
		c1.017-0.339,3.052-1.356,4.747-1.695c6.781-1.017,8.816-3.391,9.833-10.172c0.339-2.374,2.374-5.086,4.069-6.442
		c2.713-2.034,6.442-2.713,5.425-7.46c0-0.339,3.052-2.374,3.73-2.034c4.408,2.374,7.46-0.678,10.511-2.374
		c1.017-0.678,3.73-0.678,4.747,0.339c4.747,4.408,9.494,8.816,13.563,13.563c1.695,1.695,2.374,4.408,3.391,6.442
		c-2.374,1.017-4.747,2.034-7.46,2.713c-0.678,0.339-1.695,0.339-3.391,0.678c3.391,1.695,5.425,3.052,7.799,4.408
		c2.374-4.747,4.408-8.816,6.781-13.563c0,0,1.695,0.339,4.069,0.678c-1.695-1.356-2.373-2.034-3.052-2.713
		c-4.408-4.069-9.155-8.138-13.563-12.546c-1.017-1.017-1.356-4.408-0.678-5.425c1.695-2.374,2.374,0.339,3.73,1.356
		c4.408,4.069,9.494,7.46,13.902,11.189c0.678,0.678,1.356,1.695,1.695,2.713c2.034,5.764,4.069,11.189,6.442,16.954
		c0.339,0.678,1.695,1.017,2.034,1.356c1.695-2.034,3.052-4.069,4.069-5.764c-1.356-2.374-2.713-4.747-4.408-7.46
		c1.695-0.339,2.713,0,3.391-0.339c3.73-2.713,6.781-4.408,7.46,2.713c0,2.713,1.017,5.764,2.713,7.46
		c2.374,2.374,5.764,3.73,8.816,4.747c1.356,0.678,3.391,0,5.086,0.339c1.695,0,3.052,0.339,4.747,0
		c2.034-0.339,3.73-1.356,7.121-2.374c-1.695,7.121-3.052,12.546-4.747,17.632c-0.339,1.356-2.374,3.391-3.73,3.73
		c-4.408,0.678-9.155,1.356-13.224,0.678c-5.425-1.017-10.85-3.391-16.276-5.764c-4.408-2.034-7.46-0.339-8.477,4.408
		c-0.339,1.356-2.713,3.73-3.052,3.73c-3.73-2.034-6.781-4.408-10.511-6.781c-1.356-1.017-3.052-1.695-4.747-2.034
		c-3.391-1.356-6.781-2.373-10.172-3.391c0.678-0.339,1.017-0.678,1.695-1.356c0-3.391,0.678-6.781,0-9.833
		c0-0.678-4.408-0.339-6.781-0.678c-0.678,0-1.695-0.339-2.374-0.339c-7.46,1.356-15.597,2.034-22.718,5.086
		c-5.425,2.374-9.833,2.034-13.563,0.339c-3.052,3.052-6.103,5.764-8.477,8.816c-1.695,2.374-3.73,5.425-3.391,8.138
		c0.339,5.764-3.052,8.138-6.781,10.511c-1.356,0.678-2.713,1.695-3.052,2.713c-3.391,5.764-6.442,11.868-9.155,17.971
		c-0.678,1.356-1.017,2.713-1.017,4.408c0.339,5.764,1.695,11.528,0.678,16.615c-1.356,7.121-1.017,13.224,4.408,18.31
		c2.034,2.034,3.052,4.747,5.086,6.781c3.052,3.73,6.442,7.121,9.155,10.85c3.73,5.086,8.138,4.747,13.224,2.034
		c0.678-0.339,2.034-0.678,2.713-0.339c6.103,2.034,10.85-0.678,15.936-3.052c4.747-2.034,9.833-3.052,11.868,4.069
		c0.339,0.678,2.034,1.695,3.052,1.695c8.477,0,10.172,1.356,8.138,9.494c-1.695,7.46-1.017,13.563,4.408,18.988
		c1.356,1.356,2.374,3.73,3.052,6.103c1.695,5.764,3.052,11.528,4.069,17.293c0.339,2.034-0.678,4.408-1.356,6.442
		c-3.052,7.46-6.103,14.58-1.695,23.057c2.713,5.425,3.73,11.528,5.764,17.632c2.034,5.764,4.069,11.189,6.103,16.615
		c1.695,4.747,3.052,9.833,3.73,14.919c0.678,4.069,3.391,6.103,7.799,5.086c2.713-0.678,5.764-0.678,8.816-1.695
		c4.408-1.356,9.833-2.034,12.207-5.086c6.103-6.781,13.563-13.563,12.546-24.074c0-0.678,1.017-2.374,2.034-2.374
		c7.799-2.713,6.103-8.138,4.747-13.902c-0.339-2.034-0.678-4.747,0.339-6.103c3.052-3.391,6.781-6.103,9.833-9.155
		c2.034-1.695,4.747-3.73,4.747-5.764c0-6.103-0.678-12.207-1.356-18.31c-0.678-5.764-3.73-12.546-1.695-16.954
		c3.391-8.138,8.477-16.615,14.919-22.04c8.816-7.799,12.546-17.632,17.293-27.465c1.017-2.374,0.678-5.086,1.017-7.799
		c-3.73,0.678-6.442,1.356-9.494,2.034c-3.052,0.678-6.442,2.713-8.816,2.034c-2.034-0.678-2.713-5.086-4.747-7.46
		c-4.747-5.764-11.189-10.172-12.885-18.31c-0.678-3.052-2.374-6.103-3.391-9.155c-0.678-1.695-0.678-3.391-1.356-4.747
		c-3.052-6.781-6.442-13.563-9.494-20.005c0.678-0.678,1.017-1.017,1.695-1.695c1.695,1.356,4.408,2.034,5.086,3.73
		c3.391,7.121,9.833,12.546,9.833,21.023c0,0.678,0.339,1.356,1.017,2.034c6.781,6.442,9.155,14.58,10.511,23.735
		c0.339,1.356,0.678,2.713,1.356,4.408c3.052-1.017,5.764-2.034,8.138-3.391c8.477-4.747,16.954-9.155,24.752-14.919
		c4.069-3.052,6.781-8.138,10.511-12.207c3.391-3.73,0.678-6.103-1.695-8.477s-4.747-4.408-7.799-7.121
		c-0.339,0.339-1.356,2.374-3.052,3.052c-2.374,1.017-5.086,1.695-7.46,2.373c-0.339-1.695-0.678-3.73-1.356-5.425
		c0-0.339-0.339-0.678-0.678-1.017c-0.678,0.678-1.356,1.356-2.034,1.695c-2.034-4.069-4.408-8.138-6.442-12.207
		c-0.339-1.017,0.339-3.73,1.017-4.069c1.017-0.678,3.052,0,4.408,0.678c1.017,0.678,1.356,2.034,2.034,3.391
		c3.391,6.781,9.494,9.155,13.902,7.121c4.408,2.034,7.46,4.408,10.85,5.086c3.73,0.678,7.46,0.678,11.189,0.339
		c4.408-0.339,8.816-0.678,11.189,4.747c1.017,2.034,4.069,3.391,6.442,5.086c-0.678,0.339-1.356,1.017-2.034,1.695
		c4.747,6.103,5.425,6.103,9.833,0.678c-0.339,16.276,5.425,30.177,11.528,44.419c5.086-20.005,7.799-41.028,7.799-62.728
		C509.287,188.864,484.196,128.848,443.168,83.751z M397.393,202.766c-3.73,0-7.46-0.678-10.85-2.034
		c-4.408-1.695-7.799-1.695-12.207,0.339c-2.374,1.356-6.781,1.017-9.155-0.339c-3.052-1.695-2.034-4.747,0-7.799
		c2.713-4.069,4.747-8.477,6.781-12.207c6.442,0.678,6.442,5.764,8.138,8.816c2.374-1.017,4.747-2.034,6.781-2.713
		c-1.356-0.678-3.052-1.695-6.103-3.391c5.425-2.034,9.155-3.391,13.902-5.425c-2.034,3.73-3.391,6.442-5.086,9.155
		c3.391,2.374,6.781,5.086,10.172,7.799c1.356,1.356,2.713,3.73,2.374,5.086C401.801,201.07,399.089,202.766,397.393,202.766z
		 M434.352,204.122c1.017,4.408,2.374,8.816,3.73,15.258c-4.747-0.678-7.799-1.017-10.85-2.034
		c-5.086-1.695-5.425-5.425-3.052-9.155c1.695-2.713,0.339-4.747-1.017-6.781c-2.034-3.73-4.069-7.46-5.425-11.528
		c-0.339-1.017,0.339-3.73,1.356-4.408c4.408-3.391,8.477-8.477,17.632-4.747c-3.73,3.391-6.103,5.764-9.155,8.816
		c2.034,3.052,4.408,6.442,5.764,8.477c2.374,1.695,4.408,2.713,7.46,4.747C437.404,203.444,436.048,203.783,434.352,204.122z"/>
	<path style="fill:#4485C5;" d="M180.726,364.842c-1.356-0.678-2.374-2.374-3.73-3.391c-1.695-1.356-3.73-3.391-5.764-3.391
		c-9.155,0.678-14.919-6.781-23.057-8.816c-6.103-1.356-4.747-7.799-6.442-11.528c-2.713-5.764-6.781-9.155-12.885-9.833
		c-3.052-0.339-5.764-2.034-8.138-3.73c-4.069-3.052-7.46-6.781-11.189-9.833c-1.017-1.017-3.052-2.374-4.069-2.034
		c-5.425,2.373-9.833,0.339-14.58-2.713c-1.695-1.017-5.425,0.339-8.138,0.678c0.339-1.356,1.017-2.373,1.356-3.391
		c-0.339-0.339-0.678-0.678-1.356-1.017c-5.086,4.408-10.172,8.816-15.597,13.224c-2.374-2.713-5.425-4.408-9.494-1.356
		c-1.017,0.678-3.391-0.339-4.747-1.356c-5.425-3.73-3.73-9.494-3.052-14.58c0.678-5.764-1.017-7.799-6.781-7.799
		c-2.374,0-5.086,0-7.799,0c1.695-6.442,3.391-12.546,5.086-18.649c-6.442-1.695-8.816-1.017-10.172,4.747
		c-1.356,5.086-5.425,4.747-8.816,5.086c-2.034,0.339-5.764-1.017-6.781-2.374c-2.374-4.747-3.73-9.833-4.747-14.58
		c-0.678-3.052,1.017-6.442,1.017-9.494c0-10.85,6.442-15.597,16.954-12.207c1.356,0.339,3.052-0.339,4.408-1.017
		c1.695-0.678,3.391-2.374,4.747-2.374c2.713,0,5.764,2.034,8.477,1.695c5.425-1.017,5.425,2.374,6.442,6.103
		c1.017,3.73,3.052,7.121,4.408,10.85c1.017-0.339,1.695-0.339,2.713-0.678c-0.678-3.73-0.339-7.799-1.695-10.85
		c-3.73-7.799-1.695-13.902,4.747-18.988c2.034-1.356,4.069-2.713,5.764-4.408c1.356-1.356,2.034-3.052,2.713-5.086
		c0.678-3.052-1.356-5.425,2.034-9.155c4.069-4.747,5.425-11.189,13.224-12.207c-1.017-7.46,6.442-13.902,15.936-14.58
		c-1.017,1.695-2.034,4.069-2.713,6.103c0.339,0,1.017,0.339,1.356,0.339c5.425-3.052,10.511-6.103,15.936-8.816
		c-0.678-1.356-1.356-2.374-1.356-2.374c-2.713,1.017-5.425,3.391-7.121,2.713c-2.374-0.678-3.73-3.73-5.425-5.764
		c-0.678-1.017-1.356-1.695-2.034-2.374c1.017-0.678,2.713-1.695,4.747-3.391c-6.442-4.069-10.511,0.339-14.919,1.695
		c4.747-5.086,9.494-9.494,17.293-7.799c4.747,1.017,9.494,0.678,12.885-3.391c0.678-0.678,2.713-0.678,4.069-0.678
		c4.069-3.391,4.747-7.46,2.034-9.494c-3.391-2.374-7.121-4.408-10.172-7.121c-1.695-1.356-3.391-3.391-4.408-5.425
		c-2.713-5.764-5.425-11.528-8.138-17.632c-3.052,4.069-5.764,7.121-8.138,10.172c-0.678,0-1.695,0-2.374,0
		c-2.034-4.069-4.069-7.799-6.442-12.546c-5.764-4.747-12.885-8.138-21.362-6.442c0,5.764,0,11.189,0,17.971
		c6.781,6.103,6.103,10.172-4.069,16.615c-0.678,4.747,5.764,10.511-3.391,15.258c-2.374-6.103-4.408-11.528-6.442-16.275
		c-7.46-3.052-14.919-6.103-22.718-9.494C10.511,171.91,0,211.921,0,254.644c0,11.868,1.017,23.735,2.374,35.264
		c0.678,0.339,1.356,0.678,2.034,1.017c4.069,2.034,8.138,3.73,13.902,2.373c3.052-0.678,7.46,5.425,11.528,7.46
		c4.747,2.374,10.172,3.73,12.546,9.155c0.678,1.695,0.678,4.069,2.034,4.747c4.408,3.391,9.155,6.103,13.224,8.816
		c1.356-2.034,2.713-3.73,4.069-5.425c0,0,2.034,0.678,2.034,1.356c1.356,3.391,2.374,6.781,3.052,10.172
		c1.356,6.442-2.034,10.85-5.764,15.258c-4.069,4.747-4.747,9.155-1.695,14.241c-4.069,2.713-4.069,6.781-1.695,10.85
		c2.034,4.069,4.747,8.138,6.781,12.207c4.747,9.155,6.442,20.005,17.632,24.752c3.73,1.695,5.425,6.103,5.086,10.511
		c-0.678,9.155-1.356,18.31-2.374,27.126c11.868,10.511,24.752,20.344,38.654,28.482c-1.017-1.695-2.034-3.052-3.052-4.747
		c11.528,3.391,13.563,2.034,17.632-8.816c0.678-2.034,3.052-3.73,4.408-5.764c2.034-3.391,4.747-6.781,5.425-10.172
		c1.017-8.816,6.442-14.919,15.258-16.615c2.374-0.339,5.086-2.374,6.103-4.408c4.069-7.799,6.442-15.936,5.764-24.752
		c0-1.695,0.339-3.391,1.017-4.747c2.374-4.069,6.103-7.46,7.799-11.528c1.695-3.391,1.695-7.799,2.034-11.868
		C186.829,365.521,183.099,365.86,180.726,364.842z"/>
	<path style="fill:#4485C5;" d="M124.44,161.399L124.44,161.399C124.44,161.399,124.101,161.399,124.44,161.399L124.44,161.399z"/>
	<path style="fill:#4485C5;" d="M120.032,46.792c6.442,5.086,10.172,12.546,8.477,20.344c4.408,1.695,8.477,3.052,12.546,4.408
		c-0.339,0.678-0.339,1.017-0.678,1.695c-8.138-1.017-8.138-1.017-10.511,5.086c2.713,0.339,5.425,0.678,7.799,1.017
		c0.339-0.678,0.678-1.356,1.017-2.034c-1.017-0.339-2.374-0.678-3.391-1.356c0.339-0.339,1.017-1.017,1.356-1.356
		c1.356,1.695,3.73,3.052,4.408,4.747c0.678,2.713-0.678,3.73-4.069,4.069c-1.356,0-3.052,5.086-2.713,7.46
		c0.339,3.391,2.374,6.781,4.069,10.172c3.73,8.138,5.764,17.971,17.293,19.666c1.017,0,1.695,1.356,2.374,2.034
		c2.713,2.374,4.747,2.374,5.764-1.356c1.695-5.086,1.695-10.511,6.103-14.58c0.678-0.678,0.339-2.034,0.678-3.391
		c0.339-4.069,2.713-6.103,6.442-6.442c5.764-0.339,10.172-3.052,13.902-7.46c1.695-2.034,4.747-3.391,7.121-4.069
		c7.799-2.034,15.936-3.391,22.379-9.833c-3.391-0.678-6.442-1.356-9.155-1.695c1.017-1.695,2.034-3.052,2.713-4.069
		c3.052,1.356,6.103,3.052,10.172,5.086c-1.356-6.442-2.374-11.189-3.052-14.919c3.391-2.374,6.781-4.747,9.833-7.121
		c-1.356-1.356-2.374-2.713-3.391-3.73c1.017-0.678,2.034-1.356,2.713-1.695c-2.034-2.034-3.73-4.408-6.103-7.121
		c2.374,0,5.425,0,8.477,0c0-0.339,0.678-1.356,1.017-2.713c-2.034-0.678-4.069-1.017-6.781-1.695
		c2.034-0.678,2.713-1.017,4.069-1.695c-2.713-0.678-4.408-1.017-7.121-1.356c6.442-9.833,15.597-15.258,26.448-20.344
		c-11.868-3.73-21.023,0.678-30.517,3.391c1.356-2.034,2.713-3.73,3.73-5.086c-6.442-0.339-12.207-0.678-18.31-1.356
		c6.442-0.678,12.546-1.017,18.649-1.695c0-0.678,0-1.017,0-1.695c-3.052-1.017-6.103-2.034-9.155-2.713
		c-37.637,6.103-72.223,20.005-102.4,40.689C114.946,44.419,117.997,45.097,120.032,46.792z"/>
</g>
<path style="fill:#DEDEDF;" d="M472.328,276.683H273.293c-4.747,0-8.477,3.73-8.477,8.477v133.934c0,4.747,3.73,8.477,8.477,8.477
	h199.036c4.747,0,8.477-3.73,8.477-8.477V285.499C481.144,280.752,477.076,276.683,472.328,276.683z"/>
<rect x="276.683" y="288.212" style="fill:#4F5565;" width="192.254" height="128.17"/>
<path style="fill:#FCFCFD;" d="M244.472,427.571c0,14.58,11.868,26.448,26.448,26.448h205.139c14.58,0,26.448-11.868,26.448-26.448
	H244.472z"/>
<g>
	<rect x="339.751" y="432.318" style="fill:#DEDEDF;" width="67.476" height="8.477"/>
	<path style="fill:#DEDEDF;" d="M234.638,55.269H35.603c-4.747,0-8.477,3.73-8.477,8.477v133.934c0,4.747,3.73,8.477,8.477,8.477
		h199.036c4.747,0,8.477-3.73,8.477-8.477V63.746C243.454,58.999,239.385,55.269,234.638,55.269z"/>
</g>
<rect x="38.993" y="66.458" style="fill:#4F5565;" width="192.254" height="128.17"/>
<path style="fill:#FCFCFD;" d="M6.781,206.156c0,14.58,11.868,26.448,26.448,26.448h205.139c14.58,0,26.448-11.868,26.448-26.448
	H6.781z"/>
<rect x="102.061" y="210.903" style="fill:#DEDEDF;" width="67.476" height="8.477"/>
</svg>